<svg xmlns="http://www.w3.org/2000/svg" width="321.878" height="186.07"><path fill="#FFF" d="M24.902 0c2.863 2.984 5.686 6.013 8.824 8.721.29.25.549.537.82.81 41.762 41.761 83.526 83.52 125.263 125.306.86.861 1.24.788 2.06-.033C206.433 90.194 251.023 45.61 295.608 1.02c.321-.32.604-.678.906-1.018h.231c.246.286.477.593.746.855 2.979 2.92 5.922 5.875 8.936 8.766 4.926 4.725 9.682 9.628 14.514 14.452.293.294.623.553.938.827v.23c-.287.249-.592.479-.859.748a2991962.33 2991962.33 0 00-159.335 159.335c-.267.268-.498.57-.746.855h-.461c-.303-.342-.589-.698-.912-1.021-49.14-49.146-98.285-98.285-147.411-147.445a77.12 77.12 0 01-4.034-4.332c-2.485-2.903-5.39-5.447-8.121-8.14v-.23c.287-.248.593-.477.857-.746 2.84-2.899 5.713-5.767 8.524-8.695C14.11 10.533 19.014 5.773 23.841.94c.295-.295.555-.626.83-.938.077-.002.154-.002.231-.002z"/></svg>