<svg xmlns="http://www.w3.org/2000/svg" width="216.835" height="262.84"><path fill="#FFF" d="M100.282 14.188c44.981 0 81.582 36.598 81.582 81.574 0 44.99-36.601 81.582-81.582 81.582s-81.577-36.592-81.577-81.582c.001-44.976 36.596-81.574 81.577-81.574m0-14.188C47.39 0 4.516 42.877 4.516 95.763c0 52.896 42.874 95.771 95.767 95.771 52.895 0 95.767-42.874 95.767-95.771C196.049 42.877 153.177 0 100.282 0z"/><g fill="#FFF"><path d="M30.3 43.103h15.961l2.46 15.587-2.15 6.724 2.15 5.658 2.755 8.058 2.457 3.101 4.416-3.977 3.497 4.007v6.14l-2.891 4.91 4.703 2.453 3.02 2.872 2.888 4.495 2.462 2.467 4.022 2.447 2.796 2.053v7.771l-1.352 8.597 3 5.84 6.277 3.799h7.371l3.683 5.001-2.86 7.822-3.279 6.974 1.64 5.332.817 6.559.416 9.177-.822 7.136h12.685l4.093-14.701 2.864-14.313 6.956-3.68 2.047-6.953 2.048-7.769 4.501-10.231-11.049-7.348-6.552-9.02-7.771-3.272-10.639-.815-4.914 3.276-5.729-3.279-7.836.462 2.104-3.33-3.276-2.446-2.453-4.921 2.453-6.544 6.345-4.091 5.939 3.275 3.272 3.684 3.273-.819-2.456-4.503 2.044-6.133 2.285-5.328 1.875-2.039v-3.282l8.36-.822 7.042-1.227 5.563-4.499-7.24-1.224-2.39-9.415-6.929-4.099-6.537 2.46.826 5.729-4.495 3.687-8.165-2.864-3.036-5.735V40.519l-4.759-11.416h-9.411l-2.044 8.166-9.001.191-5.736-.309-6.958-8.08s-2.45.032-10.636 14.032zM104.373 25.376l7.783 2.454 6.953-5.321-2.454-11.054-1.234-4.095 13.509 4.92-3.682 5.319-.408 7.777 6.951 7.367-2.861 8.591-7.369 4.505-3.478 1.635-3.89-7.775-.402-6.552-6.145-3.278zM158.601 30.071l-3.627 14.231 9.872 5.22v9.413l-7.521 6.952-8.266 7.781 1.801 7.771s6.834 7.367 4.991 9.008c-1.837 1.639-4.352 8.187-4.352 8.187l-5.758 12.273s.799 5.735 2.437 6.14c1.635.412 8.588 3.276 8.588 3.276l1.791 7.778 6.288 4.91v11.862l-6.708 7.37 7.083 11.054s24.823-21.259 24.823-57.884-4.082-49.378-26.987-81.945l-4.455 6.603z"/></g><g fill="#FFF"><path d="M29.959 255.328H0l4.733-33.768h11.222l-4.196 30.01h7.466l4.243-30.01h11.224l-4.733 33.768zM63.577 262.84H33.62l.536-3.758h18.735l5.271-37.521h11.222l-5.807 41.279zm-12.053-7.512h-16.88l4.78-33.768h11.224l-4.247 30.01h5.661l-.538 3.758zM99.342 247.813H82.458l.538-3.761h5.612l2.634-18.73h-7.465l-3.709 26.249h18.736l-.538 3.758H68.309l4.733-33.768h29.96l-3.66 26.252zM132.277 255.328h-11.224l4.197-30.007h-7.467l-4.244 30.007h-11.223l4.731-33.768h29.96l-4.73 33.768zM182.824 225.271l-11.367 30.058h-15.712l-2.927-30.058.537-3.71h11.224l-.344 2.393 1.611 15.758 5.904-15.758.34-2.393h11.223l-.489 3.71zM212.101 255.328h-29.957l4.731-33.768h29.96l-4.734 33.768zm-10.734-3.758l3.707-26.249h-7.469l-3.707 26.249h7.469z"/></g></svg>