<svg xmlns="http://www.w3.org/2000/svg" width="71.784" height="71.8"><path fill-rule="evenodd" clip-rule="evenodd" d="M41.972 47.368c-.189-.073-.274-.012-.336.159-.537 1.478-1.233 2.895-2.198 4.141-1.771 2.297-4.104 3.604-6.988 3.934-2.089.22-4.142.037-6.12-.708-1.955-.733-3.555-1.979-4.875-3.579-1.582-1.943-2.528-4.178-3.048-6.609-.494-2.297-.616-4.605-.519-6.939.092-2.358.391-4.679 1.008-6.951.745-2.712 1.912-5.216 3.598-7.489 1.453-1.942 3.164-3.628 5.277-4.85a13.15 13.15 0 015.143-1.747c1.662-.196 3.305-.196 4.924.22 2.425.635 4.037 2.15 4.855 4.496.037.122.013.318.257.257.147-1.43.294-2.847.428-4.313h9.565c-.036.391-.073.77-.098 1.148a775.294 775.294 0 00-.501 4.972c-.159 1.552-.306 3.103-.452 4.643-.098 1.319-.22 2.639-.317 3.946-.122 1.319-.22 2.651-.293 3.958-.146 2.37-.354 4.716-.208 7.098.062 1.087.232 2.162.733 3.14.599 1.222 1.624 1.759 2.993 1.588 1.539-.208 2.663-1.039 3.604-2.223 1.111-1.393 1.832-3.005 2.37-4.691a25.677 25.677 0 001.051-5.07c.257-2.162.329-4.337.22-6.487-.184-3.372-.892-6.597-2.406-9.602-2.199-4.325-5.425-7.623-9.847-9.7-1.931-.904-3.983-1.49-6.084-1.857a33.819 33.819 0 00-7.531-.415c-5.571.342-10.61 2.101-14.996 5.583-3.732 2.981-6.609 6.634-8.618 10.983-1.137 2.443-1.882 5.009-2.328 7.66-.421 2.578-.525 5.155-.402 7.757.141 2.908.623 5.754 1.594 8.503 1.234 3.53 3.201 6.584 5.938 9.125 2.62 2.431 5.668 4.105 9.076 5.167 1.809.55 3.653.929 5.528 1.124 2.4.293 4.819.33 7.232.22 3.763-.232 7.439-.88 10.982-2.126 1.246-.439 2.468-.989 3.689-1.49.073-.024.122-.049.22-.085v.281c0 2.602 0 5.216.024 7.831 0 .195-.073.281-.244.342-2.346.99-4.765 1.674-7.281 2.138a55.4 55.4 0 01-7.922.879c-2.083.085-4.166.11-6.255-.012-4.41-.269-8.698-1.112-12.791-2.822a32.615 32.615 0 01-8.863-5.521c-2.419-2.126-4.483-4.545-6.145-7.306-1.521-2.541-2.633-5.277-3.384-8.148a37.005 37.005 0 01-.996-5.559 45.672 45.672 0 01-.146-7.489c.189-3.213.721-6.34 1.667-9.406a34.94 34.94 0 015.15-10.299c2.748-3.787 6.034-7.012 9.98-9.541 3.519-2.26 7.336-3.775 11.422-4.679a45.163 45.163 0 016.146-.843 48.04 48.04 0 016.071-.012c2.096.123 4.172.367 6.236.782 3.104.635 6.097 1.612 8.931 3.042 2.749 1.405 5.265 3.164 7.488 5.314a27.713 27.713 0 014.838 6.145c1.381 2.406 2.346 4.972 2.956 7.66.685 3.005.893 6.047.782 9.113-.098 2.639-.439 5.229-1.136 7.77-.795 2.908-2.064 5.607-3.897 8.026-1.905 2.517-4.227 4.581-7.085 5.974a16.977 16.977 0 01-5.217 1.588c-1.356.196-2.712.257-4.08.122-2.627-.244-4.875-1.258-6.572-3.359-.99-1.234-1.527-2.639-1.723-4.19-.025-.247-.048-.492-.074-.712zm.172-14.757v-1.148c-.049-1.405-.251-2.785-.867-4.056-1.711-3.543-5.4-3.787-7.789-2.48-1.063.599-1.905 1.441-2.583 2.443-1.283 1.869-2.102 3.946-2.62 6.157-.568 2.504-.746 5.045-.483 7.599.122 1.356.458 2.651 1.118 3.861.562 1.026 1.295 1.894 2.346 2.455 1.307.685 2.693.685 4.092.293 1.552-.44 2.7-1.441 3.616-2.724 1.259-1.784 1.961-3.799 2.443-5.901.483-2.138.653-4.313.727-6.499z"/></svg>