<svg xmlns="http://www.w3.org/2000/svg" width="75.956" height="73.225"><path fill-rule="evenodd" clip-rule="evenodd" d="M45.27 54.176c1.178-.209 2.19-.354 3.186-.569 9.79-2.128 14.31-8.278 13.577-19.393-.173-2.624-1.894-5.14-2.851-7.724-.261-.704-.449-1.472-.476-2.218-.082-2.225.007-4.457-.113-6.679-.108-1.992-1.392-2.59-3.11-1.948-2.285.853-4.474 1.962-6.745 2.854-.812.319-1.802.598-2.616.431a40.194 40.194 0 00-16.251-.004c-.817.166-1.8-.112-2.622-.416-2.536-.939-5.009-2.053-7.553-2.969-1.173-.422-2.063.171-2.146 1.447-.156 2.419-.16 4.848-.29 7.269-.04.744-.071 1.627-.468 2.191-7.441 10.587-1.673 24.83 11.074 27.246.869.165 1.741.314 2.605.47-.594 1.5-1.125 2.991-1.79 4.421-.192.413-.725.766-1.181.942-3.762 1.466-7.307.334-9.622-3.129-1.291-1.931-2.781-3.582-5.138-4.074-.824-.172-1.729.047-2.63.089.071.542.039.742.112.794 3.099 2.187 4.754 5.453 6.721 8.555 1.563 2.463 4.382 3.098 7.23 3.091 1.346-.003 2.69-.131 4.318-.217 0 2.292.05 4.526-.018 6.756-.045 1.492-1.01 2.008-2.382 1.76-.664-.12-1.308-.384-1.943-.627C8.561 66.562-1.601 50.289.208 34.201c2-17.785 14.923-31.374 32.143-33.798 21.702-3.055 40.716 11.56 43.365 33.331 2.021 16.617-8.919 33.888-24.793 39.139-2.547.842-3.433.227-3.438-2.433-.006-2.66.028-5.32.032-7.981.004-3.944-.259-4.918-2.247-8.283z"/></svg>