<?xml version="1.0" encoding="utf-8"?>
<!-- Generator: Adobe Illustrator 16.0.0, SVG Export Plug-In . SVG Version: 6.00 Build 0)  -->
<!DOCTYPE svg PUBLIC "-//W3C//DTD SVG 1.1//EN" "http://www.w3.org/Graphics/SVG/1.1/DTD/svg11.dtd">
<svg version="1.1" id="Layer_1" xmlns="http://www.w3.org/2000/svg" xmlns:xlink="http://www.w3.org/1999/xlink" x="0px" y="0px"
	 width="321.878px" height="186.07px" viewBox="0 0 321.878 186.07" enable-background="new 0 0 321.878 186.07"
	 xml:space="preserve">
<g>
	<path fill="#FFFFFF" d="M24.902,0c2.863,2.984,5.686,6.013,8.824,8.721c0.29,0.25,0.549,0.537,0.82,0.81
		c41.762,41.761,83.526,83.52,125.263,125.306c0.86,0.861,1.24,0.788,2.06-0.033c44.564-44.61,89.154-89.194,133.739-133.784
		c0.321-0.32,0.604-0.678,0.906-1.018c0.077,0,0.153,0,0.231,0c0.246,0.286,0.477,0.593,0.746,0.855
		c2.979,2.92,5.922,5.875,8.936,8.766c4.926,4.725,9.682,9.628,14.514,14.452c0.293,0.294,0.623,0.553,0.938,0.827
		c0,0.077,0,0.154,0,0.23c-0.287,0.249-0.592,0.479-0.859,0.748C267.906,78.99,214.794,132.102,161.685,185.215
		c-0.267,0.268-0.498,0.57-0.746,0.855c-0.154,0-0.307,0-0.461,0c-0.303-0.342-0.589-0.698-0.912-1.021
		c-49.14-49.146-98.285-98.285-147.411-147.445c-1.39-1.391-2.743-2.825-4.034-4.332C5.636,30.369,2.731,27.825,0,25.132
		c0-0.076,0-0.153,0-0.23c0.287-0.248,0.593-0.477,0.857-0.746c2.84-2.899,5.713-5.767,8.524-8.695
		c4.729-4.928,9.633-9.688,14.46-14.521c0.295-0.295,0.555-0.626,0.83-0.938C24.748,0,24.825,0,24.902,0z"/>
</g>
</svg>
