<?xml version="1.0" encoding="utf-8"?>
<!-- Generator: Adobe Illustrator 16.0.0, SVG Export Plug-In . SVG Version: 6.00 Build 0)  -->
<!DOCTYPE svg PUBLIC "-//W3C//DTD SVG 1.1//EN" "http://www.w3.org/Graphics/SVG/1.1/DTD/svg11.dtd">
<svg version="1.1" id="Layer_1" xmlns="http://www.w3.org/2000/svg" xmlns:xlink="http://www.w3.org/1999/xlink" x="0px" y="0px"
	 width="216.835px" height="262.84px" viewBox="0 0 216.835 262.84" enable-background="new 0 0 216.835 262.84"
	 xml:space="preserve">
<g>
	<g>
		<g>
			<g>
				<path fill="#FFFFFF" d="M100.282,14.188c44.981,0,81.582,36.598,81.582,81.574c0,44.99-36.601,81.582-81.582,81.582
					s-81.577-36.592-81.577-81.582C18.706,50.786,55.301,14.188,100.282,14.188 M100.282,0C47.39,0,4.516,42.877,4.516,95.763
					c0,52.896,42.874,95.771,95.767,95.771c52.895,0,95.767-42.874,95.767-95.771C196.049,42.877,153.177,0,100.282,0L100.282,0z"/>
			</g>
			<g>
				<path fill="#FFFFFF" d="M30.3,43.103h15.961l2.46,15.587l-2.15,6.724l2.15,5.658l2.755,8.058l2.457,3.101l4.416-3.977
					l3.497,4.007v6.14l-2.891,4.91l4.703,2.453l3.02,2.872l2.888,4.495l2.462,2.467l4.022,2.447l2.796,2.053v7.771l-1.352,8.597
					l3,5.84l6.277,3.799h7.371l3.683,5.001l-2.86,7.822l-3.279,6.974l1.64,5.332l0.817,6.559l0.416,9.177l-0.822,7.136h12.685
					l4.093-14.701l2.864-14.313l6.956-3.68l2.047-6.953l2.048-7.769l4.501-10.231l-11.049-7.348l-6.552-9.02l-7.771-3.272
					l-10.639-0.815l-4.914,3.276l-5.729-3.279l-7.836,0.462l2.104-3.33l-3.276-2.446l-2.453-4.921l2.453-6.544l6.345-4.091
					l5.939,3.275l3.272,3.684l3.273-0.819l-2.456-4.503l2.044-6.133l2.285-5.328l1.875-2.039v-3.282l8.36-0.822l7.042-1.227
					l5.563-4.499l-7.24-1.224l-2.39-9.415l-6.929-4.099l-6.537,2.46l0.826,5.729l-4.495,3.687l-8.165-2.864l-3.036-5.735V40.519
					l-4.759-11.416h-9.411l-2.044,8.166l-9.001,0.191l-5.736-0.309l-6.958-8.08C40.936,29.071,38.486,29.103,30.3,43.103z"/>
				<polygon fill="#FFFFFF" points="104.373,25.376 112.156,27.83 119.109,22.509 116.655,11.455 115.421,7.36 128.93,12.28 
					125.248,17.599 124.84,25.376 131.791,32.743 128.93,41.334 121.561,45.839 118.083,47.474 114.193,39.699 113.791,33.147 
					107.646,29.869 				"/>
				<path fill="#FFFFFF" d="M158.601,30.071l-3.627,14.231l9.872,5.22v9.413l-7.521,6.952l-8.266,7.781l1.801,7.771
					c0,0,6.834,7.367,4.991,9.008c-1.837,1.639-4.352,8.187-4.352,8.187l-5.758,12.273c0,0,0.799,5.735,2.437,6.14
					c1.635,0.412,8.588,3.276,8.588,3.276l1.791,7.778l6.288,4.91v11.862l-6.708,7.37l7.083,11.054c0,0,24.823-21.259,24.823-57.884
					s-4.082-49.378-26.987-81.945L158.601,30.071z"/>
			</g>
		</g>
	</g>
	<g>
		<path fill="#FFFFFF" d="M29.959,255.328H0l4.733-33.768h11.222l-4.196,30.01h7.466l4.243-30.01h11.224L29.959,255.328z"/>
		<path fill="#FFFFFF" d="M63.577,262.84H33.62l0.536-3.758h18.735l5.271-37.521h11.222L63.577,262.84z M51.524,255.328h-16.88
			l4.78-33.768h11.224l-4.247,30.01h5.661L51.524,255.328z"/>
		<path fill="#FFFFFF" d="M99.342,247.813H82.458l0.538-3.761h5.612l2.634-18.73h-7.465l-3.709,26.249h18.736l-0.538,3.758H68.309
			l4.733-33.768h29.96L99.342,247.813z"/>
		<path fill="#FFFFFF" d="M132.277,255.328h-11.224l4.197-30.007h-7.467l-4.244,30.007h-11.223l4.731-33.768h29.96L132.277,255.328z
			"/>
		<path fill="#FFFFFF" d="M182.824,225.271l-11.367,30.058h-15.712l-2.927-30.058l0.537-3.71h11.224l-0.344,2.393l1.611,15.758
			l5.904-15.758l0.34-2.393h11.223L182.824,225.271z"/>
		<path fill="#FFFFFF" d="M212.101,255.328h-29.957l4.731-33.768h29.96L212.101,255.328z M201.367,251.57l3.707-26.249h-7.469
			l-3.707,26.249H201.367z"/>
	</g>
</g>
</svg>
