<?xml version="1.0" encoding="utf-8"?>
<!-- Generator: Adobe Illustrator 16.0.0, SVG Export Plug-In . SVG Version: 6.00 Build 0)  -->
<!DOCTYPE svg PUBLIC "-//W3C//DTD SVG 1.1//EN" "http://www.w3.org/Graphics/SVG/1.1/DTD/svg11.dtd">
<svg version="1.1" id="Layer_1" xmlns="http://www.w3.org/2000/svg" xmlns:xlink="http://www.w3.org/1999/xlink" x="0px" y="0px"
	 width="322.596px" height="30.42px" viewBox="0 0 322.596 30.42" enable-background="new 0 0 322.596 30.42" xml:space="preserve">
<g>
	<path d="M22.104,30.471H0l1.332-9.685h8.316l-0.972,6.912h5.544l1.151-8.279H1.549l1.943-13.86h22.104l-1.332,9.684h-8.316
		l0.972-6.911h-5.544l-1.151,8.315h13.824L22.104,30.471z"/>
	<path d="M50.185,24.927H37.729l0.396-2.772h4.141l1.943-13.823H38.7l-2.735,19.367h13.823l-0.396,2.772H27.288L30.78,5.559h22.104
		L50.185,24.927z"/>
	<path d="M76.248,30.471h-8.496l-2.195-22.14l-3.097,22.14h-8.315l4.284-30.42h8.279l-0.792,5.508h13.86l-0.396,2.772l-5.257,0.035
		L76.248,30.471z"/>
	<path d="M103.716,30.471H81.611l2.7-19.368h12.456l-0.396,2.772h-4.141l-1.943,13.823h5.508l2.735-19.367H84.708l0.396-2.772
		h22.104L103.716,30.471z"/>
	<path d="M116.855,30.471h-8.28l3.492-24.912h8.279L116.855,30.471z M120.563,4.154h-8.316l0.612-4.104h8.279L120.563,4.154z"/>
	<path d="M144.611,30.471h-22.104l3.492-24.912h22.104l-1.332,9.684h-8.316l0.972-6.911h-5.508l-2.735,19.367h5.508l0.972-6.912
		h8.316L144.611,30.471z"/>
	<path d="M171.431,30.471h-8.279l3.132-22.14h-5.544l-3.132,22.14h-8.28l4.284-30.42h8.279l-0.756,5.508h13.824L171.431,30.471z"/>
	<path d="M199.188,30.471h-22.104l2.7-19.368h12.456l-0.396,2.772h-4.141l-1.943,13.823h5.508l2.735-19.367H180.18l0.396-2.772
		h22.104L199.188,30.471z"/>
	<path d="M226.548,30.471h-8.28l3.096-22.14h-5.508l-3.132,22.14h-8.28l3.492-24.912h22.104L226.548,30.471z"/>
	<path d="M239.977,30.471h-6.903l0.973-6.912h6.866L239.977,30.471z"/>
	<path d="M266.399,30.471h-22.104l2.7-19.368h12.456l-0.396,2.772h-4.141l-1.943,13.823h5.508l2.735-19.367h-13.823l0.396-2.772
		h22.104L266.399,30.471z"/>
	<path d="M295.92,15.242h-8.316l0.972-6.911h-5.508l-3.132,22.14h-8.28l3.492-24.912h22.104L295.92,15.242z"/>
	<path d="M319.067,30.471h-22.104l4.284-30.42h8.279l-0.792,5.508h13.86L322.2,8.331h-13.824l-2.736,19.367h5.508l0.973-6.912h8.315
		L319.067,30.471z"/>
</g>
</svg>
