<?xml version="1.0" encoding="utf-8"?>
<!-- Generator: Adobe Illustrator 16.0.0, SVG Export Plug-In . SVG Version: 6.00 Build 0)  -->
<!DOCTYPE svg PUBLIC "-//W3C//DTD SVG 1.1//EN" "http://www.w3.org/Graphics/SVG/1.1/DTD/svg11.dtd">
<svg version="1.1" id="Layer_1" xmlns="http://www.w3.org/2000/svg" xmlns:xlink="http://www.w3.org/1999/xlink" x="0px" y="0px"
	 width="71.784px" height="71.8px" viewBox="0 0 71.784 71.8" enable-background="new 0 0 71.784 71.8" xml:space="preserve">
<g>
	<path fill-rule="evenodd" clip-rule="evenodd" d="M41.972,47.368c-0.189-0.073-0.274-0.012-0.336,0.159
		c-0.537,1.478-1.233,2.895-2.198,4.141c-1.771,2.297-4.104,3.604-6.988,3.934c-2.089,0.22-4.142,0.037-6.12-0.708
		c-1.955-0.733-3.555-1.979-4.875-3.579c-1.582-1.943-2.528-4.178-3.048-6.609c-0.494-2.297-0.616-4.605-0.519-6.939
		c0.092-2.358,0.391-4.679,1.008-6.951c0.745-2.712,1.912-5.216,3.598-7.489c1.453-1.942,3.164-3.628,5.277-4.85
		c1.601-0.94,3.311-1.527,5.143-1.747c1.662-0.196,3.305-0.196,4.924,0.22c2.425,0.635,4.037,2.15,4.855,4.496
		c0.037,0.122,0.013,0.318,0.257,0.257c0.147-1.43,0.294-2.847,0.428-4.313c3.188,0,6.365,0,9.565,0
		c-0.036,0.391-0.073,0.77-0.098,1.148c-0.171,1.661-0.342,3.323-0.501,4.972c-0.159,1.552-0.306,3.103-0.452,4.643
		c-0.098,1.319-0.22,2.639-0.317,3.946c-0.122,1.319-0.22,2.651-0.293,3.958c-0.146,2.37-0.354,4.716-0.208,7.098
		c0.062,1.087,0.232,2.162,0.733,3.14c0.599,1.222,1.624,1.759,2.993,1.588c1.539-0.208,2.663-1.039,3.604-2.223
		c1.111-1.393,1.832-3.005,2.37-4.691c0.525-1.649,0.867-3.347,1.051-5.07c0.257-2.162,0.329-4.337,0.22-6.487
		c-0.184-3.372-0.892-6.597-2.406-9.602c-2.199-4.325-5.425-7.623-9.847-9.7c-1.931-0.904-3.983-1.49-6.084-1.857
		c-2.498-0.427-5.009-0.55-7.531-0.415c-5.571,0.342-10.61,2.101-14.996,5.583c-3.732,2.981-6.609,6.634-8.618,10.983
		c-1.137,2.443-1.882,5.009-2.328,7.66c-0.421,2.578-0.525,5.155-0.402,7.757c0.141,2.908,0.623,5.754,1.594,8.503
		c1.234,3.53,3.201,6.584,5.938,9.125c2.62,2.431,5.668,4.105,9.076,5.167c1.809,0.55,3.653,0.929,5.528,1.124
		c2.4,0.293,4.819,0.33,7.232,0.22c3.763-0.232,7.439-0.88,10.982-2.126c1.246-0.439,2.468-0.989,3.689-1.49
		c0.073-0.024,0.122-0.049,0.22-0.085c0,0.11,0,0.195,0,0.281c0,2.602,0,5.216,0.024,7.831c0,0.195-0.073,0.281-0.244,0.342
		c-2.346,0.99-4.765,1.674-7.281,2.138c-2.614,0.488-5.253,0.77-7.922,0.879c-2.083,0.085-4.166,0.11-6.255-0.012
		c-4.41-0.269-8.698-1.112-12.791-2.822c-3.25-1.368-6.206-3.201-8.863-5.521c-2.419-2.126-4.483-4.545-6.145-7.306
		c-1.521-2.541-2.633-5.277-3.384-8.148c-0.483-1.833-0.801-3.702-0.996-5.559c-0.257-2.492-0.299-4.984-0.146-7.489
		c0.189-3.213,0.721-6.34,1.667-9.406c1.148-3.726,2.865-7.147,5.15-10.299c2.748-3.787,6.034-7.012,9.98-9.541
		c3.519-2.26,7.336-3.775,11.422-4.679c2.028-0.416,4.074-0.708,6.146-0.843c2.028-0.134,4.044-0.134,6.071-0.012
		c2.096,0.123,4.172,0.367,6.236,0.782c3.104,0.635,6.097,1.612,8.931,3.042c2.749,1.405,5.265,3.164,7.488,5.314
		c1.894,1.82,3.519,3.86,4.838,6.145c1.381,2.406,2.346,4.972,2.956,7.66c0.685,3.005,0.893,6.047,0.782,9.113
		c-0.098,2.639-0.439,5.229-1.136,7.77c-0.795,2.908-2.064,5.607-3.897,8.026c-1.905,2.517-4.227,4.581-7.085,5.974
		c-1.649,0.806-3.396,1.344-5.217,1.588c-1.356,0.196-2.712,0.257-4.08,0.122c-2.627-0.244-4.875-1.258-6.572-3.359
		c-0.99-1.234-1.527-2.639-1.723-4.19C42.021,47.833,41.998,47.588,41.972,47.368z M42.144,32.611c0-0.391,0-0.77,0-1.148
		c-0.049-1.405-0.251-2.785-0.867-4.056c-1.711-3.543-5.4-3.787-7.789-2.48c-1.063,0.599-1.905,1.441-2.583,2.443
		c-1.283,1.869-2.102,3.946-2.62,6.157c-0.568,2.504-0.746,5.045-0.483,7.599c0.122,1.356,0.458,2.651,1.118,3.861
		c0.562,1.026,1.295,1.894,2.346,2.455c1.307,0.685,2.693,0.685,4.092,0.293c1.552-0.44,2.7-1.441,3.616-2.724
		c1.259-1.784,1.961-3.799,2.443-5.901C41.9,36.972,42.07,34.797,42.144,32.611z"/>
</g>
</svg>
