<?xml version="1.0" encoding="utf-8"?>
<!-- Generator: Adobe Illustrator 16.0.0, SVG Export Plug-In . SVG Version: 6.00 Build 0)  -->
<!DOCTYPE svg PUBLIC "-//W3C//DTD SVG 1.1//EN" "http://www.w3.org/Graphics/SVG/1.1/DTD/svg11.dtd">
<svg version="1.1" id="Layer_1" xmlns="http://www.w3.org/2000/svg" xmlns:xlink="http://www.w3.org/1999/xlink" x="0px" y="0px"
	 width="59.745px" height="59.561px" viewBox="0 0 59.745 59.561" enable-background="new 0 0 59.745 59.561" xml:space="preserve">
<g>
	<path fill-rule="evenodd" clip-rule="evenodd" fill="#010101" d="M33.095,25.205c-0.03,0-0.061-0.014-0.092-0.025
		c-0.006-0.123-0.03-0.27-0.03-0.402c0-1.49,0-2.982,0-4.473c0-0.574,0-0.574-0.562-0.574c-3.592,0-7.196,0-10.8,0
		c-0.538,0-0.556,0.025-0.556,0.563c0,12.912,0,25.826,0,38.752c0,0.512,0.006,0.512,0.55,0.512c3.75,0,7.507,0,11.257,0
		c0.666,0,0.599,0.086,0.599-0.598c0.03-6.977,0.049-13.951,0.086-20.902c0.006-1.393,0.263-2.762,0.733-4.08
		c0.695-1.955,1.96-3.336,3.988-3.91c1.173-0.342,2.37-0.451,3.579-0.318c2.138,0.244,3.653,1.283,4.508,3.275
		c0.709,1.686,0.88,3.457,0.88,5.264c0.024,6.902,0.012,13.83,0.012,20.744c0,0.525,0.013,0.525,0.538,0.525
		c3.823,0,7.636,0,11.459,0c0.159,0,0.306,0,0.501,0c0-0.244,0-0.414,0-0.598c0-5.021,0-10.029,0-15.051
		c-0.024-3.104-0.024-6.193-0.098-9.273c-0.049-1.355-0.221-2.711-0.416-4.055c-0.329-2.09-0.928-4.129-2.027-5.975
		c-1.368-2.309-3.323-3.908-5.852-4.813c-2.248-0.795-4.582-1.039-6.951-0.979c-2.346,0.063-4.545,0.6-6.572,1.748
		c-1.687,0.939-3.115,2.174-4.185,3.799C33.455,24.643,33.278,24.924,33.095,25.205z M0.989,59.557c0.232,0,0.379,0,0.525,0
		c3.781,0,7.563,0,11.338,0c0.549,0,0.549,0,0.549-0.549c0-12.9,0-25.789,0-38.678c0-0.6,0-0.6-0.586-0.6c-3.75,0-7.507,0-11.252,0
		c-0.567,0-0.574,0-0.574,0.563c0,12.912,0,25.826,0,38.752C0.989,59.191,0.989,59.35,0.989,59.557z M7.22,0.002
		C3.274-0.084-0.012,3.275,0,7.172c0.007,3.982,3.109,7.27,7.196,7.258c4.135-0.012,7.244-3.176,7.244-7.244
		C14.452,3.166,11.172-0.01,7.22,0.002z"/>
	<path fill-rule="evenodd" clip-rule="evenodd" fill="#010101" d="M33.095,25.205c0.184-0.281,0.36-0.563,0.55-0.844
		c1.069-1.625,2.498-2.859,4.185-3.799c2.027-1.148,4.227-1.686,6.572-1.748c2.369-0.061,4.703,0.184,6.951,0.979
		c2.528,0.904,4.483,2.504,5.852,4.813c1.1,1.846,1.698,3.885,2.027,5.975c0.195,1.344,0.367,2.699,0.416,4.055
		c0.073,3.08,0.073,6.17,0.098,9.273c0,5.021,0,10.029,0,15.051c0,0.184,0,0.354,0,0.598c-0.195,0-0.342,0-0.501,0
		c-3.823,0-7.636,0-11.459,0c-0.525,0-0.538,0-0.538-0.525c0-6.914,0.013-13.842-0.012-20.744c0-1.807-0.171-3.578-0.88-5.264
		c-0.854-1.992-2.37-3.031-4.508-3.275c-1.209-0.133-2.406-0.023-3.579,0.318c-2.028,0.574-3.293,1.955-3.988,3.91
		c-0.471,1.318-0.728,2.688-0.733,4.08c-0.037,6.951-0.056,13.926-0.086,20.902c0,0.684,0.067,0.598-0.599,0.598
		c-3.75,0-7.507,0-11.257,0c-0.544,0-0.55,0-0.55-0.512c0-12.926,0-25.84,0-38.752c0-0.537,0.018-0.563,0.556-0.563
		c3.604,0,7.208,0,10.8,0c0.562,0,0.562,0,0.562,0.574c0,1.49,0,2.982,0,4.473c0,0.133,0.024,0.279,0.03,0.402
		C33.034,25.191,33.064,25.205,33.095,25.205z"/>
	<path fill-rule="evenodd" clip-rule="evenodd" fill="#010101" d="M0.989,59.557c0-0.207,0-0.365,0-0.512c0-12.926,0-25.84,0-38.752
		c0-0.563,0.007-0.563,0.574-0.563c3.745,0,7.502,0,11.252,0c0.586,0,0.586,0,0.586,0.6c0,12.889,0,25.777,0,38.678
		c0,0.549,0,0.549-0.549,0.549c-3.775,0-7.557,0-11.338,0C1.368,59.557,1.222,59.557,0.989,59.557z"/>
	<path fill-rule="evenodd" clip-rule="evenodd" fill="#010101" d="M7.22,0.002c3.952-0.012,7.232,3.164,7.221,7.184
		c0,4.068-3.109,7.232-7.244,7.244C3.109,14.441,0.007,11.154,0,7.172C-0.012,3.275,3.274-0.084,7.22,0.002z"/>
</g>
</svg>
