<?xml version="1.0" encoding="utf-8"?>
<!-- Generator: Adobe Illustrator 16.0.0, SVG Export Plug-In . SVG Version: 6.00 Build 0)  -->
<!DOCTYPE svg PUBLIC "-//W3C//DTD SVG 1.1//EN" "http://www.w3.org/Graphics/SVG/1.1/DTD/svg11.dtd">
<svg version="1.1" id="Layer_1" xmlns="http://www.w3.org/2000/svg" xmlns:xlink="http://www.w3.org/1999/xlink" x="0px" y="0px"
	 width="75.956px" height="73.225px" viewBox="0 0 75.956 73.225" enable-background="new 0 0 75.956 73.225" xml:space="preserve">
<g>
	<path fill-rule="evenodd" clip-rule="evenodd" d="M45.27,54.176c1.178-0.209,2.19-0.354,3.186-0.569
		c9.79-2.128,14.31-8.278,13.577-19.393c-0.173-2.624-1.894-5.14-2.851-7.724c-0.261-0.704-0.449-1.472-0.476-2.218
		c-0.082-2.225,0.007-4.457-0.113-6.679c-0.108-1.992-1.392-2.59-3.11-1.948c-2.285,0.853-4.474,1.962-6.745,2.854
		c-0.812,0.319-1.802,0.598-2.616,0.431c-5.428-1.107-10.823-1.11-16.251-0.004c-0.817,0.166-1.8-0.112-2.622-0.416
		c-2.536-0.939-5.009-2.053-7.553-2.969c-1.173-0.422-2.063,0.171-2.146,1.447c-0.156,2.419-0.16,4.848-0.29,7.269
		c-0.04,0.744-0.071,1.627-0.468,2.191c-7.441,10.587-1.673,24.83,11.074,27.246c0.869,0.165,1.741,0.314,2.605,0.47
		c-0.594,1.5-1.125,2.991-1.79,4.421c-0.192,0.413-0.725,0.766-1.181,0.942c-3.762,1.466-7.307,0.334-9.622-3.129
		c-1.291-1.931-2.781-3.582-5.138-4.074c-0.824-0.172-1.729,0.047-2.63,0.089c0.071,0.542,0.039,0.742,0.112,0.794
		c3.099,2.187,4.754,5.453,6.721,8.555c1.563,2.463,4.382,3.098,7.23,3.091c1.346-0.003,2.69-0.131,4.318-0.217
		c0,2.292,0.05,4.526-0.018,6.756c-0.045,1.492-1.01,2.008-2.382,1.76c-0.664-0.12-1.308-0.384-1.943-0.627
		C8.561,66.562-1.601,50.289,0.208,34.201c2-17.785,14.923-31.374,32.143-33.798c21.702-3.055,40.716,11.56,43.365,33.331
		c2.021,16.617-8.919,33.888-24.793,39.139c-2.547,0.842-3.433,0.227-3.438-2.433c-0.006-2.66,0.028-5.32,0.032-7.981
		C47.521,58.515,47.258,57.541,45.27,54.176z"/>
</g>
</svg>
