<?xml version="1.0" encoding="utf-8"?>
<!-- Generator: Adobe Illustrator 16.0.0, SVG Export Plug-In . SVG Version: 6.00 Build 0)  -->
<!DOCTYPE svg PUBLIC "-//W3C//DTD SVG 1.1//EN" "http://www.w3.org/Graphics/SVG/1.1/DTD/svg11.dtd">
<svg version="1.1" id="Layer_1" xmlns="http://www.w3.org/2000/svg" xmlns:xlink="http://www.w3.org/1999/xlink" x="0px" y="0px"
	 width="74.534px" height="74.445px" viewBox="0 0 74.534 74.445" enable-background="new 0 0 74.534 74.445" xml:space="preserve">
<g>
	<path fill-rule="evenodd" clip-rule="evenodd" d="M74.422,37.189c0,5.021,0.103,10.045-0.028,15.063
		c-0.14,5.373-1.281,10.471-4.862,14.752c-3.695,4.418-8.535,6.824-14.142,7.051c-9.348,0.378-18.714,0.304-28.073,0.378
		c-4.156,0.033-8.325,0.074-12.372-1.111C6.794,70.936,2.032,65.434,0.679,57.155c-0.579-3.544-0.609-7.199-0.639-10.806
		c-0.065-8.052-0.062-16.107,0.085-24.157C0.224,16.769,1.426,11.628,5.07,7.334c3.689-4.349,8.5-6.722,14.057-6.945
		C28.475,0.014,37.841,0.077,47.2,0.01c4.108-0.03,8.227-0.063,12.24,1.084c8.231,2.353,13.04,7.862,14.392,16.197
		c0.604,3.721,0.528,7.56,0.654,11.348c0.095,2.847,0.019,5.7,0.019,8.55C74.478,37.189,74.45,37.189,74.422,37.189z M67.885,37.232
		c-0.157-5.637-0.232-11.334-0.497-17.022c-0.29-6.235-3.871-10.911-9.502-12.442c-1.856-0.504-3.821-0.847-5.737-0.85
		C41.436,6.902,30.718,6.872,20.008,7.136c-6.1,0.15-10.667,3.878-12.191,9.427c-0.509,1.854-0.859,3.819-0.862,5.734
		C6.937,33.011,6.912,43.729,7.169,54.439c0.146,6.104,3.844,10.677,9.4,12.208c1.938,0.534,3.997,0.876,6.001,0.881
		c10.534,0.026,21.071,0.073,31.6-0.201c7.708-0.201,12.846-5.5,13.224-13.225C67.667,48.506,67.728,42.898,67.885,37.232z"/>
	<path fill-rule="evenodd" clip-rule="evenodd" d="M56.505,37.185c0.032,10.536-8.651,19.253-19.209,19.285
		c-10.535,0.032-19.252-8.651-19.285-19.209c-0.032-10.543,8.644-19.254,19.209-19.286C47.763,17.944,56.474,26.62,56.505,37.185z
		 M49.683,37.281c-0.195-6.867-5.21-12.391-12.4-12.431c-6.714-0.038-12.276,4.998-12.396,12.247
		c-0.111,6.674,4.919,12.403,12.28,12.497C43.959,49.68,49.383,44.527,49.683,37.281z"/>
	<path fill-rule="evenodd" clip-rule="evenodd" d="M57.121,12.798c2.568-0.016,4.552,1.938,4.561,4.494
		c0.01,2.57-1.945,4.518-4.527,4.513c-2.54-0.006-4.445-1.882-4.479-4.411C52.642,14.807,54.569,12.814,57.121,12.798z"/>
</g>
</svg>
